<?xml version="1.0" encoding="utf-8"?>
<!-- Generator: Adobe Illustrator 19.2.0, SVG Export Plug-In . SVG Version: 6.00 Build 0)  -->
<svg version="1.1" id="Warstwa_1" xmlns="http://www.w3.org/2000/svg" xmlns:xlink="http://www.w3.org/1999/xlink" x="0px" y="0px"
	 viewBox="0 0 182.6 27.5" style="enable-background:new 0 0 182.6 27.5;" xml:space="preserve" width="156" height="30">
<style type="text/css">
	.st0{fill:#26437E;}
</style>
<g>
	<g>
		<path class="st0" d="M109.6,22.9c-2.6-7.1-5.2-14.2-7.8-21.3c-0.1-0.3-0.2-0.6-0.3-0.8c-0.2-0.3-0.6-0.6-1-0.7c-0.4,0-0.8,0-1.2,0
			c-1.1,0-2.1,0-3.2,0c-0.6,0-1,0.3-1.3,0.7c-0.1,0.2-0.2,0.5-0.3,0.8c-1.4,4-2.9,7.9-4.3,11.8c-1.5,4-2.9,7.9-4.3,11.8
			c-0.1,0.3-0.3,0.6-0.3,0.8c0,0.1,0,0.2,0.1,0.3c0.2,0.5,0.6,0.9,1.2,0.9c0.5,0.1,1.1,0,1.7,0c0.3,0,0.6,0,0.9,0s0.6,0,0.9,0
			c0.8-0.2,1-0.8,1.3-1.5c0.7-1.8,1.4-3.6,2.1-5.4c3,0,6,0,8.9,0c0.2,0.6,0.4,1,0.6,1.6c0.5,1.3,1,2.6,1.5,3.9
			c0.1,0.3,0.2,0.6,0.3,0.8c0.2,0.3,0.6,0.6,1.1,0.7c0.6,0,1.2,0,1.8,0c0.5,0,1.3,0,1.7-0.1c0.5-0.2,0.8-0.5,0.9-0.9
			c0-0.1,0.1-0.3,0.1-0.3c0-0.2-0.2-0.5-0.3-0.8C110.1,24.5,109.9,23.7,109.6,22.9z M95.6,15.4c0.9-2.3,1.7-4.6,2.6-6.9
			c0.9,2.3,1.7,4.6,2.6,6.9C99.1,15.4,97.4,15.4,95.6,15.4z M130.4,22.3c-1.2-1.6-2.5-3.1-3.7-4.6c-0.1-0.1-0.2-0.2-0.2-0.3
			c2.3-0.9,3.9-2.3,5-4.4c0.5-1.1,0.9-2.4,0.9-3.8c0-3-1.2-5.1-2.8-6.6c-1.2-1.1-2.7-2-4.8-2.3c-0.7-0.1-1.4-0.1-2.3-0.1
			c-2,0-4.1,0-6,0c-0.9,0-1.9-0.1-2.4,0.2c-0.3,0.2-0.4,0.4-0.6,0.8c-0.1,0.4-0.1,1-0.1,1.5c0,7.4,0,14.8,0,22.1
			c0,0.6,0,1.1,0.1,1.5c0.1,0.5,0.5,0.9,1.2,1c0.5,0.1,1.1,0,1.7,0s1.2,0.1,1.7,0c0.7-0.1,1.1-0.6,1.2-1.1c0.1-0.3,0-0.7,0-1
			c0-2.5,0-4.8,0-7.2c0.2,0.1,0.3,0.4,0.4,0.5c1.1,1.3,2.1,2.7,3.2,4c1,1.3,2.2,2.7,3.2,4c0.2,0.2,0.3,0.4,0.5,0.5
			c0.5,0.3,1.7,0.2,2.5,0.2c0.5,0,0.9,0,1.3,0c0.5,0,0.9,0.1,1.3,0c0.6-0.1,1-0.5,1.1-1.1c0.1-0.7-0.3-1.1-0.6-1.5
			C131.8,23.9,131.1,23,130.4,22.3z M124.5,12.2c-0.6,0.4-1.2,0.5-2.2,0.5c-0.8,0-1.8,0-2.7,0c0-2.5,0-4.9,0-7.4V5.2
			c1.3,0.1,2.6-0.1,3.7,0.1c1,0.2,1.8,0.8,2.3,1.5c0.3,0.5,0.6,1.1,0.7,1.8C126.5,10.4,125.5,11.6,124.5,12.2z M21.9,21.7
			c-0.4-0.4-0.9-0.8-1.3-1.2c-0.2-0.2-0.4-0.4-0.7-0.6c-0.4-0.2-0.9-0.2-1.3-0.1c-0.3,0.2-0.6,0.4-0.8,0.6c-0.9,0.5-1.9,0.9-3.1,1.1
			c-1.8,0.2-3.5-0.3-4.6-0.8c-1.2-0.6-2.2-1.5-3-2.6c-0.7-1.1-1.3-2.4-1.3-4.3c0-1.8,0.6-3.2,1.3-4.3c0.7-1.1,1.7-2,2.9-2.7
			c1.2-0.6,2.8-1.1,4.6-0.9c1.5,0.2,2.6,0.7,3.6,1.3c0.1,0.1,0.3,0.2,0.4,0.3c0.4,0.2,1,0.2,1.4-0.1c0.2-0.2,0.4-0.4,0.7-0.6
			C21.2,6.4,21.6,6,22,5.5c0.2-0.2,0.4-0.4,0.6-0.7c0.3-0.5,0.2-1.2-0.2-1.6C22.3,3.1,22.1,3,22,2.8c-2.2-1.7-5.1-2.9-9-2.8
			c-0.3,0-0.7,0-1,0.1c-2.1,0.2-3.9,1-5.3,1.8c-1.7,1-3,2.2-4.2,4c-1.1,1.6-1.9,3.5-2.3,5.9c-0.2,1.3-0.2,2.6,0,3.8
			c0.5,3.5,2.2,6,4.3,7.9c1.5,1.3,3.2,2.4,5.2,3c2.2,0.7,4.9,0.7,7.2,0.2c1.8-0.5,3.5-1.3,4.9-2.3c0.2-0.1,0.4-0.3,0.6-0.5
			c0.3-0.3,0.4-0.9,0.2-1.4C22.5,22.3,22.2,22,21.9,21.7z M46.9,3.8c-1.1-1.1-2.5-2-4.1-2.7S39.1,0,37,0.1c-0.5,0-1,0.1-1.6,0.2
			c-0.5,0.1-1,0.2-1.4,0.3c-2.6,0.7-4.7,2.2-6.3,3.9c-1.1,1.2-2,2.5-2.6,4.2c-0.6,1.6-1.1,3.5-1,5.8c0.1,2.1,0.6,3.9,1.4,5.4
			c0.8,1.5,1.7,2.8,2.9,3.9c1.1,1.1,2.5,2,4.2,2.6c1.6,0.6,3.6,1.1,5.8,1c2.1-0.1,3.9-0.6,5.4-1.4s2.8-1.7,3.9-2.9s2-2.5,2.7-4.1
			c0.6-1.6,1.1-3.6,1-5.8c-0.1-2.1-0.6-3.9-1.4-5.4C49,6.2,48.1,4.9,46.9,3.8z M43.4,19.3c-1.2,1.3-3.1,2.4-5.5,2.4
			c-2.5,0.1-4.4-0.9-5.7-2.2c-1.3-1.2-2.4-3.1-2.5-5.5c-0.1-1.3,0.2-2.5,0.6-3.4c0.4-1,0.9-1.7,1.6-2.4c1-1,2.1-1.8,3.7-2.2
			c0.6-0.1,1.2-0.2,1.8-0.2c2.5-0.1,4.5,1,5.8,2.2c0.7,0.7,1.3,1.4,1.7,2.3s0.7,2,0.8,3.2C45.7,16.2,44.6,18,43.4,19.3z M79,2
			c0-0.3,0-0.6-0.1-0.8c-0.1-0.5-0.6-0.9-1-1c-0.3-0.1-0.7,0-1,0c-0.7,0-1.4,0-2.1,0c-0.4,0-0.8,0-1,0c-0.4,0.1-0.7,0.4-0.9,0.7
			c-0.1,0.2-0.2,0.5-0.3,0.8c-0.7,1.9-1.4,3.7-2.1,5.6c-0.8,2.2-1.6,4.3-2.4,6.4c-1.5-3.9-3-8-4.5-11.9c-0.1-0.3-0.2-0.6-0.3-0.8
			c-0.2-0.3-0.4-0.6-0.7-0.7c-0.5-0.2-1.4-0.1-2.1-0.1c-0.4,0-0.7,0-1.1,0s-0.8,0-1.1,0c-0.5,0.1-1,0.5-1.2,1.1
			C57,1.6,57,1.8,57,2.1c-1.3,7.8-2.6,15.5-3.9,23.3c0,0.3-0.1,0.6-0.1,0.8c0,0.4,0.2,0.7,0.5,0.9c0.6,0.5,1.6,0.3,2.6,0.3
			c0.5,0,1,0.1,1.5,0c0.6-0.1,1-0.5,1.2-1.1v-0.1c0-0.1,0-0.2,0.1-0.4c0.6-4.1,1.3-8.3,1.9-12.3c0.1-0.3,0.1-0.7,0.2-1
			c1.7,4.3,3.5,8.5,5.2,12.8c0.3,0.8,0.6,1.7,1.5,2c0.1,0,0.2,0.1,0.3,0.1c0.3,0,0.5,0,0.7-0.1c0.7-0.3,1-1,1.3-1.8
			c1.8-4.3,3.6-8.7,5.3-13c0.7,4.6,1.4,9.1,2.1,13.7c0.1,0.2,0.1,0.4,0.3,0.6c0.2,0.3,0.6,0.6,1,0.6c0.5,0,1.1,0,1.7,0
			s1.2,0.1,1.7,0s0.9-0.4,1.1-0.8c0.1-0.2,0.1-0.3,0.1-0.5c0-0.1,0-0.3-0.1-0.4C81.6,17.8,80.3,9.8,79,2z M145.3,6.7
			c1.3-0.6,3-1.1,4.9-0.8c1.2,0.2,2.3,0.7,3.1,1.2c0.1,0,0.1,0.1,0.2,0.1c0.1,0.1,0.1,0.1,0.2,0.2s0.3,0.2,0.5,0.2
			c0.8,0.1,1.2-0.4,1.6-0.8c0.5-0.5,0.9-0.9,1.4-1.4c0.2-0.2,0.5-0.5,0.6-0.8s0.1-0.8,0-1.1s-0.5-0.6-0.8-0.8
			c-0.3-0.2-0.7-0.5-1-0.6c-2-1.2-4.6-2.2-7.8-2l0,0c-0.3,0-0.6,0-1,0.1c-2.1,0.3-3.9,1-5.3,1.8c-1.7,1-3.1,2.3-4.2,4
			c-1.1,1.6-2,3.5-2.3,5.9c-0.2,1.3-0.1,2.6,0.1,3.8c0.6,3.5,2.2,6.1,4.3,7.9c1.5,1.3,3.1,2.3,5.2,3c1.1,0.3,2.3,0.5,3.5,0.6
			c1.3,0.1,2.5-0.1,3.7-0.4c1.9-0.5,3.5-1.3,4.8-2.3c0.2-0.1,0.4-0.3,0.6-0.4c0.4-0.4,0.4-1.2,0.1-1.7c-0.3-0.4-0.8-0.8-1.2-1.2
			c-0.4-0.4-0.8-0.9-1.2-1.2s-1-0.4-1.6-0.1c-0.1,0.1-0.3,0.2-0.4,0.3c-0.7,0.5-1.6,0.9-2.6,1.1c-0.8,0.2-1.7,0.3-2.7,0.2
			c-0.8-0.1-1.6-0.3-2.3-0.6c-1.4-0.6-2.5-1.5-3.3-2.6c-0.8-1-1.4-2.5-1.5-4.3s0.5-3.4,1.3-4.5C143,8.4,144,7.4,145.3,6.7z
			 M182.6,24.4c0-6.9,0-14.1,0-21c0-0.7,0-1.3,0-1.9c0-0.5-0.3-0.9-0.8-1.1c-0.4-0.2-1.2-0.1-1.8-0.1c-0.6,0-1.3,0-1.9,0
			s-1,0.3-1.3,0.6c-0.3,0.5-0.2,1.6-0.2,2.5c0,2.8,0,5.4,0,8.2c-3.2,0-6.5,0-9.6,0c0-3,0-6,0-8.9c0-0.4,0.1-0.9,0-1.3
			c-0.1-0.5-0.6-1.1-1.2-1.1c-0.5,0-1.1,0-1.7,0s-1.2-0.1-1.7,0c-0.6,0.1-1,0.5-1.2,1.1c-0.1,0.4,0,1,0,1.5c0,7.4,0,14.6,0,21.9
			c0,0.5-0.1,1.1,0,1.6c0.1,0.6,0.5,0.9,0.9,1c0.3,0.1,0.6,0.1,0.9,0.1c0.6,0,1.4,0,2,0c0.3,0,0.7,0,1,0c0.5-0.1,0.9-0.5,1-1
			c0.1-0.3,0.1-0.8,0.1-1.2c0-3,0-5.8,0-8.7c3.2,0,6.5,0,9.6,0c0,2.8,0,5.8,0,8.6c0,0.4,0,0.8,0,1.2c0.1,0.6,0.6,1,1.2,1.1
			c0.5,0.1,1.2,0,1.9,0c0.6,0,1.4,0.1,1.8-0.1c0.5-0.2,0.8-0.5,0.9-1C182.7,25.8,182.6,25.1,182.6,24.4z"/>
	</g>
</g>
</svg>
