<?xml version="1.0" encoding="UTF-8"?> <svg xmlns="http://www.w3.org/2000/svg" width="607" height="167" viewBox="0 0 607 167" fill="none"><path fill-rule="evenodd" clip-rule="evenodd" d="M145 160.543C145.958 161.076 147.368 161.448 148.937 161.448C152.369 161.448 154.205 159.745 154.205 157.377C154.179 155.462 153.114 154.265 150.747 153.44C149.097 152.828 148.485 152.456 148.485 151.631C148.485 150.833 149.124 150.247 150.294 150.247C151.438 150.247 152.503 150.673 153.035 150.992L153.7 148.704C152.928 148.279 151.678 147.933 150.241 147.933C147.235 147.933 145.346 149.689 145.346 151.977C145.346 153.52 146.383 154.903 148.911 155.755C150.507 156.34 151.039 156.766 151.039 157.644C151.039 158.495 150.401 159.107 148.964 159.107C147.793 159.107 146.383 158.601 145.665 158.149L145 160.543ZM168.335 147.933C164.424 147.933 161.63 150.54 161.63 154.797C161.63 158.974 164.477 161.475 168.122 161.475C171.421 161.475 174.773 159.346 174.773 154.584C174.773 150.647 172.192 147.933 168.335 147.933ZM168.255 150.301C170.49 150.301 171.394 152.642 171.394 154.664C171.394 157.298 170.091 159.107 168.228 159.107C166.26 159.107 165.009 157.218 165.009 154.717C165.009 152.562 165.94 150.301 168.255 150.301ZM186.668 161.182V150.673H189.461V148.225H186.641V147.56C186.641 145.964 187.173 144.607 188.796 144.607C189.408 144.607 189.834 144.714 190.206 144.847L190.419 142.319C189.913 142.16 189.222 142 188.344 142C187.2 142 185.923 142.346 184.965 143.25C183.848 144.315 183.395 145.991 183.395 147.667V148.225H181.639V150.673H183.395V161.182H186.668ZM197.951 145.804V148.225H196.115V150.673H197.951V156.766C197.951 158.468 198.27 159.665 198.988 160.41C199.6 161.076 200.584 161.475 201.808 161.475C202.819 161.475 203.697 161.315 204.176 161.129L204.123 158.655C203.75 158.761 203.431 158.788 202.846 158.788C201.595 158.788 201.17 157.989 201.17 156.393V150.673H204.282V148.225H201.17V144.9L197.951 145.804ZM211.122 148.225L214.953 161.182H218.013L219.662 155.914C220.035 154.637 220.354 153.36 220.647 151.764H220.7C220.993 153.334 221.285 154.557 221.684 155.914L223.227 161.182H226.26L230.331 148.225H227.112L225.675 153.972C225.329 155.489 225.01 156.899 224.824 158.309H224.77C224.478 156.899 224.132 155.489 223.733 153.972L222.11 148.225H219.449L217.747 154.132C217.401 155.462 216.975 156.899 216.709 158.309H216.656C216.417 156.899 216.124 155.489 215.805 154.105L214.474 148.225H211.122ZM247.892 153.413C247.892 150.567 246.695 147.933 242.545 147.933C240.496 147.933 238.82 148.492 237.862 149.077L238.501 151.205C239.379 150.647 240.709 150.247 241.986 150.247C244.274 150.247 244.62 151.657 244.62 152.509V152.722C239.831 152.695 236.931 154.371 236.931 157.617C236.931 159.586 238.394 161.475 241.002 161.475C242.704 161.475 244.061 160.756 244.833 159.745H244.913L245.152 161.182H248.105C247.945 160.384 247.892 159.24 247.892 158.069V153.413ZM244.7 156.633C244.7 156.872 244.7 157.111 244.62 157.351C244.301 158.282 243.369 159.133 242.039 159.133C241.002 159.133 240.177 158.548 240.177 157.271C240.177 155.302 242.385 154.823 244.7 154.85V156.633ZM256.914 161.182H260.186V154.451C260.186 154.105 260.213 153.759 260.266 153.467C260.559 151.977 261.649 150.992 263.192 150.992C263.591 150.992 263.884 151.019 264.177 151.072V148.013C263.911 147.959 263.724 147.933 263.405 147.933C261.995 147.933 260.479 148.864 259.84 150.673H259.76L259.627 148.225H256.807C256.887 149.369 256.914 150.647 256.914 152.402V161.182ZM282.696 155.622C282.749 155.329 282.802 154.85 282.802 154.238C282.802 151.391 281.419 147.933 277.215 147.933C273.065 147.933 270.884 151.312 270.884 154.903C270.884 158.867 273.358 161.448 277.561 161.448C279.424 161.448 280.967 161.102 282.084 160.623L281.605 158.388C280.594 158.734 279.53 158.974 278.014 158.974C275.912 158.974 274.103 157.963 274.023 155.622H282.696ZM274.023 153.334C274.156 152.003 275.007 150.168 277.029 150.168C279.211 150.168 279.743 152.136 279.716 153.334H274.023ZM312.924 155.169C312.977 154.903 313.004 154.557 313.004 154.079C313.004 151.711 311.913 148.039 307.683 148.039C303.931 148.039 301.643 151.072 301.643 154.956C301.643 158.841 304.011 161.475 307.975 161.475C310.024 161.475 311.46 161.022 312.285 160.65L311.86 158.974C311.008 159.346 309.971 159.639 308.295 159.639C305.927 159.639 303.931 158.335 303.878 155.169H312.924ZM303.905 153.493C304.091 151.87 305.102 149.715 307.496 149.715C310.13 149.715 310.769 152.03 310.742 153.493H303.905ZM321.466 161.182H323.807V153.44C323.807 153.041 323.861 152.642 323.967 152.349C324.393 151.046 325.59 149.955 327.106 149.955C329.315 149.955 330.086 151.684 330.086 153.759V161.182H332.427V153.52C332.427 149.103 329.66 148.039 327.878 148.039C325.75 148.039 324.26 149.236 323.621 150.434H323.568L323.435 148.305H321.36C321.44 149.369 321.466 150.434 321.466 151.791V161.182ZM352.809 151.817C352.809 150.274 352.836 149.21 352.915 148.305H350.84L350.76 150.247H350.707C350.122 149.183 348.925 148.039 346.69 148.039C343.71 148.039 340.863 150.487 340.863 154.85C340.863 158.415 343.151 161.129 346.344 161.129C348.339 161.129 349.749 160.171 350.441 158.974H350.494V160.384C350.494 163.656 348.738 164.907 346.344 164.907C344.748 164.907 343.417 164.428 342.566 163.869L341.981 165.678C343.018 166.37 344.721 166.742 346.264 166.742C347.887 166.742 349.696 166.343 350.973 165.199C352.197 164.055 352.809 162.273 352.809 159.293V151.817ZM350.468 155.701C350.468 156.1 350.415 156.553 350.281 156.952C349.803 158.442 348.499 159.346 347.036 159.346C344.535 159.346 343.231 157.244 343.231 154.717C343.231 151.737 344.828 149.848 347.062 149.848C348.792 149.848 349.909 150.966 350.335 152.349C350.441 152.642 350.468 152.988 350.468 153.387V155.701ZM364.411 161.182V148.305H362.07V161.182H364.411ZM363.24 143.224C362.362 143.224 361.777 143.889 361.777 144.687C361.777 145.485 362.336 146.124 363.187 146.124C364.118 146.124 364.677 145.485 364.677 144.687C364.677 143.862 364.092 143.224 363.24 143.224ZM373.858 161.182H376.199V153.44C376.199 153.041 376.252 152.642 376.359 152.349C376.785 151.046 377.982 149.955 379.498 149.955C381.706 149.955 382.478 151.684 382.478 153.759V161.182H384.819V153.52C384.819 149.103 382.052 148.039 380.27 148.039C378.141 148.039 376.652 149.236 376.013 150.434H375.96L375.827 148.305H373.752C373.831 149.369 373.858 150.434 373.858 151.791V161.182ZM404.536 155.169C404.589 154.903 404.615 154.557 404.615 154.079C404.615 151.711 403.525 148.039 399.295 148.039C395.543 148.039 393.255 151.072 393.255 154.956C393.255 158.841 395.623 161.475 399.587 161.475C401.636 161.475 403.072 161.022 403.897 160.65L403.471 158.974C402.62 159.346 401.583 159.639 399.906 159.639C397.539 159.639 395.543 158.335 395.49 155.169H404.536ZM395.517 153.493C395.703 151.87 396.714 149.715 399.108 149.715C401.742 149.715 402.381 152.03 402.354 153.493H395.517ZM423.427 155.169C423.481 154.903 423.507 154.557 423.507 154.079C423.507 151.711 422.416 148.039 418.186 148.039C414.435 148.039 412.147 151.072 412.147 154.956C412.147 158.841 414.515 161.475 418.479 161.475C420.527 161.475 421.964 161.022 422.789 160.65L422.363 158.974C421.512 159.346 420.474 159.639 418.798 159.639C416.43 159.639 414.435 158.335 414.382 155.169H423.427ZM414.408 153.493C414.595 151.87 415.606 149.715 418 149.715C420.634 149.715 421.272 152.03 421.246 153.493H414.408ZM431.97 161.182H434.311V154.318C434.311 153.945 434.338 153.546 434.391 153.227C434.71 151.471 435.881 150.247 437.53 150.247C437.849 150.247 438.089 150.247 438.328 150.301V148.092C438.116 148.066 437.929 148.039 437.69 148.039C436.12 148.039 434.684 149.13 434.098 150.859H434.018L433.912 148.305H431.863C431.943 149.503 431.97 150.806 431.97 152.323V161.182ZM448.68 161.182V148.305H446.339V161.182H448.68ZM447.509 143.224C446.631 143.224 446.046 143.889 446.046 144.687C446.046 145.485 446.605 146.124 447.456 146.124C448.387 146.124 448.946 145.485 448.946 144.687C448.946 143.862 448.361 143.224 447.509 143.224ZM458.127 161.182H460.468V153.44C460.468 153.041 460.521 152.642 460.628 152.349C461.054 151.046 462.251 149.955 463.767 149.955C465.975 149.955 466.747 151.684 466.747 153.759V161.182H469.088V153.52C469.088 149.103 466.321 148.039 464.539 148.039C462.41 148.039 460.921 149.236 460.282 150.434H460.229L460.096 148.305H458.021C458.1 149.369 458.127 150.434 458.127 151.791V161.182ZM489.47 151.817C489.47 150.274 489.496 149.21 489.576 148.305H487.501L487.421 150.247H487.368C486.783 149.183 485.586 148.039 483.351 148.039C480.371 148.039 477.524 150.487 477.524 154.85C477.524 158.415 479.812 161.129 483.005 161.129C485 161.129 486.41 160.171 487.102 158.974H487.155V160.384C487.155 163.656 485.399 164.907 483.005 164.907C481.409 164.907 480.078 164.428 479.227 163.869L478.642 165.678C479.679 166.37 481.382 166.742 482.925 166.742C484.548 166.742 486.357 166.343 487.634 165.199C488.858 164.055 489.47 162.273 489.47 159.293V151.817ZM487.129 155.701C487.129 156.1 487.075 156.553 486.942 156.952C486.463 158.442 485.16 159.346 483.697 159.346C481.196 159.346 479.892 157.244 479.892 154.717C479.892 151.737 481.488 149.848 483.723 149.848C485.452 149.848 486.57 150.966 486.996 152.349C487.102 152.642 487.129 152.988 487.129 153.387V155.701ZM512.434 161.182V148.305H510.093V161.182H512.434ZM511.264 143.224C510.386 143.224 509.801 143.889 509.801 144.687C509.801 145.485 510.359 146.124 511.211 146.124C512.142 146.124 512.7 145.485 512.7 144.687C512.7 143.862 512.115 143.224 511.264 143.224ZM521.004 160.57C521.908 161.102 523.212 161.475 524.622 161.475C527.628 161.475 529.411 159.878 529.411 157.59C529.411 155.675 528.24 154.557 526.032 153.733C524.356 153.068 523.611 152.589 523.611 151.524C523.611 150.567 524.356 149.769 525.739 149.769C526.936 149.769 527.868 150.221 528.373 150.54L528.932 148.837C528.24 148.385 527.096 148.039 525.792 148.039C523.052 148.039 521.349 149.742 521.349 151.817C521.349 153.36 522.44 154.611 524.781 155.462C526.484 156.1 527.149 156.686 527.149 157.803C527.149 158.894 526.351 159.719 524.675 159.719C523.504 159.719 522.281 159.24 521.562 158.814L521.004 160.57ZM549.183 161.182H551.524V153.44C551.524 153.041 551.577 152.642 551.684 152.349C552.109 151.046 553.306 149.955 554.823 149.955C557.031 149.955 557.803 151.684 557.803 153.759V161.182H560.144V153.52C560.144 149.103 557.377 148.039 555.594 148.039C553.466 148.039 551.976 149.236 551.338 150.434H551.284L551.151 148.305H549.076C549.156 149.369 549.183 150.434 549.183 151.791V161.182ZM574.965 148.039C571.427 148.039 568.58 150.567 568.58 154.85C568.58 158.921 571.294 161.475 574.752 161.475C577.838 161.475 581.164 159.399 581.164 154.637C581.164 150.726 578.663 148.039 574.965 148.039ZM574.912 149.795C577.679 149.795 578.77 152.535 578.77 154.717C578.77 157.617 577.093 159.719 574.859 159.719C572.571 159.719 570.974 157.59 570.974 154.77C570.974 152.349 572.172 149.795 574.912 149.795ZM588.217 148.305L592.101 161.182H594.229L596.304 155.063C596.757 153.679 597.156 152.349 597.475 150.806H597.528C597.847 152.323 598.22 153.6 598.672 155.036L600.641 161.182H602.769L606.92 148.305H604.605L602.769 154.77C602.344 156.287 601.998 157.644 601.785 158.947H601.705C601.412 157.644 601.04 156.287 600.561 154.744L598.566 148.305H596.597L594.495 154.877C594.07 156.26 593.644 157.644 593.351 158.947H593.271C593.032 157.617 592.686 156.287 592.34 154.85L590.611 148.305H588.217Z" fill="#707173"></path><path opacity="0.2" fill-rule="evenodd" clip-rule="evenodd" d="M52.4979 161C27.3694 161 7 159.433 7 157.499C7 155.567 27.3705 154 52.4979 154C77.6253 154 98 155.568 98 157.499C98 159.433 77.6263 161 52.4979 161Z" fill="url(#paint0_radial)"></path><path fill-rule="evenodd" clip-rule="evenodd" d="M206.949 82.3474C207.273 80.5648 207.597 77.648 207.597 73.9209C207.597 56.582 199.17 35.5159 173.567 35.5159C148.288 35.5159 135 56.0958 135 77.9721C135 102.117 150.07 117.836 175.674 117.836C187.017 117.836 196.416 115.729 203.222 112.812L200.305 99.2002C194.147 101.307 187.665 102.765 178.428 102.765C165.627 102.765 154.608 96.6074 154.121 82.3474H206.949ZM154.121 68.4113C154.932 60.309 160.117 49.1278 172.433 49.1278C185.721 49.1278 188.961 61.1193 188.799 68.4113H154.121ZM221.233 116.215H229.011V67.9252C229.011 65.4945 229.497 62.9018 229.983 61.1193C233.062 50.9103 242.461 43.1321 253.318 43.1321C269.361 43.1321 274.87 55.9338 274.87 70.1939V116.215H282.649V69.5457C282.649 40.3773 262.879 36.6502 255.425 36.6502C242.785 36.6502 232.9 43.6182 228.687 52.3687H228.363L227.877 38.4327H220.585C221.071 44.5905 221.233 49.938 221.233 57.0681V116.215ZM351.705 67.277C351.705 53.5031 347.329 36.6502 324.805 36.6502C317.837 36.6502 309.086 38.5948 301.956 43.2941L304.387 48.9658C310.059 44.9146 317.189 43.1321 323.995 43.1321C342.468 42.97 343.926 58.3645 343.926 65.9807V68.0873C312.165 67.7632 296.447 78.6203 296.447 96.6074C296.447 106.978 303.577 117.998 319.295 117.998C331.773 117.998 340.361 111.03 344.25 105.034H344.575L345.709 116.215H352.839C351.867 110.219 351.705 103.9 351.705 97.7418V67.277ZM343.926 91.2599C343.926 92.5563 343.764 94.3388 343.116 95.9593C340.523 103.575 333.069 111.516 320.105 111.516C312.003 111.516 304.549 106.492 304.549 95.3111C304.549 76.6757 326.911 74.083 343.926 74.5691V91.2599ZM371.985 116.215H379.763V1H371.985V116.215ZM460 76.5137C460.324 75.0553 460.324 73.9209 460.324 71.8143C460.324 60.6331 455.463 36.6502 430.021 36.6502C409.928 36.6502 395.019 52.8549 395.019 78.7823C395.019 101.631 408.955 117.836 431.318 117.836C444.93 117.836 452.87 114.433 455.787 112.812L453.842 106.816C449.467 108.923 443.633 111.192 432.29 111.192C416.247 111.192 402.636 101.307 402.636 76.5137H460ZM403.122 70.3559C404.58 58.3645 411.872 43.1321 429.049 43.1321C447.846 43.1321 452.384 59.4988 452.222 70.3559H403.122ZM523.708 67.277C523.708 53.5031 519.333 36.6502 496.809 36.6502C489.841 36.6502 481.09 38.5948 473.96 43.2941L476.391 48.9658C482.062 44.9146 489.193 43.1321 495.999 43.1321C514.472 42.97 515.93 58.3645 515.93 65.9807V68.0873C484.169 67.7632 468.451 78.6203 468.451 96.6074C468.451 106.978 475.581 117.998 491.299 117.998C503.777 117.998 512.365 111.03 516.254 105.034H516.578L517.713 116.215H524.843C523.87 110.219 523.708 103.9 523.708 97.7418V67.277ZM515.93 91.2599C515.93 92.5563 515.768 94.3388 515.12 95.9593C512.527 103.575 505.073 111.516 492.109 111.516C484.007 111.516 476.553 106.492 476.553 95.3111C476.553 76.6757 498.915 74.083 515.93 74.5691V91.2599ZM543.988 116.215H551.767V67.9252C551.767 65.4945 552.253 62.9018 552.739 61.1193C555.818 50.9103 565.217 43.1321 576.074 43.1321C592.116 43.1321 597.626 55.9338 597.626 70.1939V116.215H605.404V69.5457C605.404 40.3773 585.634 36.6502 578.18 36.6502C565.541 36.6502 555.656 43.6182 551.443 52.3687H551.118L550.632 38.4327H543.34C543.826 44.5905 543.988 49.938 543.988 57.0681V116.215Z" fill="#292E35"></path><path fill-rule="evenodd" clip-rule="evenodd" d="M78.2331 5.21101C79.3946 5.28004 80.397 4.39653 80.4711 3.22587C80.5452 2.05522 79.6665 1.04736 78.5021 0.97845C77.3488 0.906644 76.3411 1.79015 76.2696 2.95252C76.19 4.12042 77.0715 5.12532 78.2331 5.21101ZM91.8698 13.2538C91.8698 15.4907 90.0662 17.3041 87.8414 17.3041C85.6165 17.3041 83.813 15.4907 83.813 13.2538C83.813 11.0168 85.6165 9.20342 87.8414 9.20342C90.0662 9.20342 91.8698 11.0168 91.8698 13.2538ZM72.7026 23.3451C75.6683 23.5329 78.2221 21.2799 78.4033 18.2981C78.5955 15.319 76.3575 12.7485 73.3918 12.5662C70.4316 12.3675 67.8751 14.6315 67.6883 17.6023C67.4934 20.5842 69.7369 23.1463 72.7026 23.3451ZM87.8606 38.4974C87.5448 43.376 83.3544 47.0813 78.4967 46.7693C73.6417 46.449 69.9648 42.2385 70.2723 37.3571C70.5881 32.4784 74.784 28.7732 79.6253 29.0824C84.4885 29.3944 88.1819 33.6105 87.8606 38.4974ZM87.0121 75.2846C86.1388 88.9322 74.4023 99.3024 60.8041 98.4272C47.2222 97.5547 36.9164 85.7626 37.7897 72.0874C38.6629 58.4289 50.3939 48.0531 63.9785 48.9339C77.5795 49.8257 87.8935 61.6095 87.0121 75.2846Z" fill="#292E35"></path><path fill-rule="evenodd" clip-rule="evenodd" d="M92.5206 81.1491C89.3572 87.7975 68.8719 109.537 51.3962 93.4051C35.9279 79.1197 52.5825 65.3314 52.5825 65.3314C52.5825 65.3314 67.5208 53.716 66.8453 32.1417C66.6696 26.0813 65.0796 21.4208 62.8965 17.8619C59.604 17.2048 56.1935 16.8486 52.6951 16.8486C23.8866 16.8486 0.534424 40.339 0.534424 69.3072C0.534424 98.2726 23.8866 121.749 52.6951 121.749C81.5063 121.749 104.861 98.2726 104.861 69.3072C104.858 56.176 100.05 44.1823 92.1279 34.9772C103.499 58.6002 95.3462 75.213 92.5206 81.1491Z" fill="url(#paint1_linear)"></path><defs><radialGradient id="paint0_radial" cx="0" cy="0" r="1" gradientUnits="userSpaceOnUse" gradientTransform="translate(52.5002 157.5) rotate(-0.123793) scale(45.4329 3.50551)"><stop></stop><stop offset="1" stop-opacity="0.01"></stop></radialGradient><linearGradient id="paint1_linear" x1="0.532232" y1="121.748" x2="104.86" y2="121.748" gradientUnits="userSpaceOnUse"><stop stop-color="#FEE453"></stop><stop offset="0.1148" stop-color="#FCCF3E"></stop><stop offset="0.3067" stop-color="#F6A719"></stop><stop offset="0.4224" stop-color="#F4A218"></stop><stop offset="0.5764" stop-color="#F09616"></stop><stop offset="0.7521" stop-color="#E97D14"></stop><stop offset="0.938231" stop-color="#E26714"></stop><stop offset="1" stop-color="#DF5B14"></stop></linearGradient></defs></svg> 