<svg width="295" height="201" viewBox="0 0 295 201" fill="none" xmlns="http://www.w3.org/2000/svg">
<path d="M4.40306 21.1612H0V14.7193H4.40306V0.0214844H32.6972V6.46337H11.2117V14.7193H26.1821V21.1612H11.2117V30.3526H32.6972V36.7945H4.40306V21.1612Z" fill="#0C1218"/>
<path d="M37.9375 8.44972H44.0445V12.0206H44.1591C45.863 9.38529 48.9702 7.68555 52.8435 7.68555C58.8359 7.68555 63.8834 12.6634 63.8834 19.6909V36.7883H57.7835V21.0407C57.7835 15.8843 55.0844 13.7775 51.0321 13.7775C47.1016 13.7775 44.0445 16.2985 44.0445 20.9193V36.7883H37.9375V8.44972Z" fill="#0C1218"/>
<path d="M97.0394 30.6451C93.6315 34.923 88.9421 37.4941 83.8302 37.5583C73.9072 37.5583 68.1582 30.1237 68.1582 22.6249C68.1582 15.1331 73.9144 7.69141 83.8302 7.69141C89.7583 7.69141 98.5644 12.555 98.5644 23.6176V24.7317H74.9597C75.3105 29.0668 79.3627 32.1663 83.6513 32.1663C86.9374 32.1663 89.7583 30.588 91.8703 27.7741L97.0394 30.6451ZM91.3978 19.6896C90.1091 15.3545 86.8802 13.0763 82.9997 13.0763C79.1193 13.0763 75.9549 15.4759 74.9525 19.6896H91.3978Z" fill="#0C1218"/>
<path d="M103.748 8.44843H109.497V11.5551H109.612C110.614 9.21261 112.719 7.69141 115.189 7.69141C116.535 7.69141 117.709 8.04135 118.533 8.56985L116.363 14.6047C115.776 14.1333 114.659 13.7833 114.072 13.7833C111.846 13.7833 109.848 15.4831 109.848 18.0613V36.8013H103.741V8.44843H103.748Z" fill="#0C1218"/>
<path d="M147.077 33.6304C147.077 43.0004 139.91 48.3853 132.214 48.3853C128.276 48.3853 123.465 46.7427 120.229 42.7647L125.219 39.1367C126.393 40.7721 129.035 42.6504 131.913 42.6504C138.142 42.6504 141.313 38.6082 141.313 34.2803V32.402C138.729 35.273 135.793 36.7942 131.619 36.7942C124.281 36.7942 117.823 31.2879 117.823 22.3321C117.823 13.0192 124.746 7.69141 132.328 7.69141C136.144 7.69141 139.201 9.15547 141.199 11.7908H141.313V8.45558H147.07V33.6304H147.077ZM132.865 31.0522C137.798 31.0522 141.321 27.1242 141.321 22.2678C141.321 17.3471 137.505 13.4263 132.865 13.4263C128.104 13.4263 124.288 17.3471 124.288 22.2107C124.288 27.1313 127.689 31.0522 132.865 31.0522Z" fill="#0C1218"/>
<path d="M152.989 8.45117H159.096V25.0772C159.096 29.8194 162.039 31.8119 165.798 31.8119C170.559 31.8119 172.85 28.8838 172.85 24.4916V8.45117H178.964V35.9113C178.964 44.5743 171.267 48.3809 165.984 48.3809C159.576 48.3809 156.698 45.9812 153.934 42.8174L159.103 39.6536C161.044 41.5248 162.984 42.6389 165.626 42.6389C169.678 42.6389 173.2 40.1821 173.2 35.2043V33.6831H173.086C170.673 36.3755 168.447 37.5468 164.509 37.5468C158.166 37.5468 152.996 32.8047 152.996 24.8416V8.45117H152.989Z" fill="#0C1218"/>
<path d="M69.589 95.3056H60.7686V82.4004H69.589V44.8418H104.763C121.23 44.8418 131.346 55.6402 131.346 70.0737C131.346 84.5073 121.23 95.2985 104.763 95.2985H83.2349V118.531H69.589V95.3056ZM83.2349 82.3933H103.704C113.348 82.3933 117.701 76.6442 117.701 70.0737C117.701 63.5033 113.348 57.7541 103.704 57.7541H83.2349V82.3933V82.3933Z" fill="#0C1218"/>
<path d="M233.869 58.0469C253.751 58.0469 265.278 72.9518 265.278 87.9709C265.278 102.99 253.751 117.895 233.869 117.895C213.988 117.895 202.461 102.99 202.461 87.9709C202.461 72.9518 213.988 58.0469 233.869 58.0469ZM233.869 106.397C244.573 106.397 252.334 98.1837 252.334 87.9709C252.334 77.7653 244.573 69.5451 233.869 69.5451C223.159 69.5451 215.398 77.7582 215.398 87.9709C215.398 98.1766 223.159 106.397 233.869 106.397Z" fill="#0C1218"/>
<path d="M282.704 45.6855V96.4922C282.704 103.063 284.115 105.412 287.759 107.526L294.346 111.283L288.933 120.91C276.347 114.925 270.469 110.583 270.469 98.7276V45.6855H282.704Z" fill="#0C1218"/>
<path d="M185.523 0L185.638 58.177L238.883 37.7658L229.031 30.8525L195.575 43.3435L195.153 6.69185L185.523 0Z" fill="#FF9900"/>
<path d="M144.478 174.044L144.37 115.867L91.1182 136.271L100.97 143.192L134.426 130.701L134.848 167.352L144.478 174.044Z" fill="#FF9900"/>
<path d="M165.778 57.7578C185.659 57.7578 197.186 72.6627 197.186 87.6819C197.186 102.701 185.659 117.606 165.778 117.606C145.896 117.606 134.369 102.701 134.369 87.6819C134.369 72.6627 145.896 57.7578 165.778 57.7578ZM165.778 106.108C176.481 106.108 184.242 97.8946 184.242 87.6819C184.242 77.4691 176.481 69.2561 165.778 69.2561C155.067 69.2561 147.306 77.4691 147.306 87.6819C147.306 97.8946 155.074 106.108 165.778 106.108Z" fill="#0C1218"/>
<path d="M177.127 88.1994C177.269 81.9732 172.324 76.8113 166.082 76.6699C159.841 76.5286 154.666 81.4613 154.524 87.6874C154.382 93.9136 159.327 99.0755 165.569 99.2169C171.811 99.3583 176.985 94.4256 177.127 88.1994Z" fill="#FF9900"/>
<path d="M31.9986 194.001C32.872 194.929 34.1034 195.579 35.4637 195.579C37.1033 195.558 38.2559 194.95 38.2559 193.836C38.2559 191.237 30.717 193.743 30.717 188.987C30.717 186.909 32.8935 185.48 35.5568 185.48C37.4899 185.48 39.0578 186.095 40.2105 187.266L38.6067 188.694C37.5471 187.652 36.5806 187.302 35.4423 187.302C33.6524 187.302 32.9866 188.173 32.9866 188.88C32.9866 191.501 40.5255 188.88 40.5255 193.729C40.5255 196.165 38.0483 197.629 35.3707 197.629C33.7312 197.629 31.8339 197.014 30.3662 195.472L31.9986 194.001Z" fill="#0C1218"/>
<path d="M43.7119 192.4C43.7119 190.379 45.0651 189.215 46.6258 189.215C47.8286 189.215 48.7021 189.786 49.0099 190.629H49.0457C49.3607 189.793 50.2342 189.215 51.4298 189.215C52.9906 189.215 54.3437 190.379 54.3437 192.4V197.378H52.6326V192.421C52.6326 191.472 52.024 190.929 51.3153 190.929C50.4919 190.929 49.8834 191.422 49.8834 192.657V197.385H48.1722V192.657C48.1722 191.422 47.5637 190.929 46.7404 190.929C46.0316 190.929 45.423 191.472 45.423 192.421V197.378H43.7119V192.4V192.4Z" fill="#0C1218"/>
<path d="M63.917 196.409H63.8812C63.3371 197.131 62.3491 197.595 61.2609 197.595C58.6405 197.595 57.1299 195.459 57.1299 193.41C57.1299 191.453 58.7622 189.225 61.3468 189.225C62.5353 189.225 63.4374 189.732 63.8812 190.41H63.917V189.439H65.6282V197.388H63.917V196.409V196.409ZM61.4828 195.988C62.836 195.988 63.9886 194.838 63.9886 193.41C63.9886 191.981 62.836 190.832 61.4828 190.832C60.1011 190.832 58.9484 191.981 58.9484 193.41C58.9412 194.838 60.0939 195.988 61.4828 195.988Z" fill="#0C1218"/>
<path d="M69.0062 189.429H70.6171V190.3H70.6529C70.9321 189.643 71.5263 189.215 72.2136 189.215C72.5931 189.215 72.9224 189.315 73.1515 189.458L72.5429 191.15C72.3783 191.022 72.0633 190.922 71.8986 190.922C71.2757 190.922 70.7101 191.4 70.7101 192.122V197.378H68.999V189.429H69.0062Z" fill="#0C1218"/>
<path d="M74.6699 189.432H75.6436V187.332L77.3547 186.854V189.432H78.7222V191.039H77.3547V194.174C77.3547 195.031 77.5552 195.424 78.0635 195.716L78.9871 196.245L78.2282 197.595C76.4669 196.759 75.6436 196.152 75.6436 194.488V191.039H74.6699V189.432Z" fill="#0C1218"/>
<path d="M87.6695 192.427H86.2734V190.384H87.6695V185.721H96.6403V187.763H89.8245V190.384H94.5712V192.427H89.8245V195.341H96.6403V197.383H87.6695V192.427V192.427Z" fill="#0C1218"/>
<path d="M99.8145 189.429H101.526V190.429H101.561C102.041 189.686 102.915 189.215 103.996 189.215C105.678 189.215 107.088 190.615 107.088 192.579V197.371H105.377V192.95C105.377 191.507 104.618 190.915 103.487 190.915C102.385 190.915 101.526 191.622 101.526 192.921V197.371H99.8145V189.429V189.429Z" fill="#0C1218"/>
<path d="M118.106 195.659C117.154 196.859 115.837 197.58 114.405 197.595C111.62 197.595 110.009 195.509 110.009 193.41C110.009 191.31 111.62 189.225 114.405 189.225C116.066 189.225 118.536 190.589 118.536 193.688V194.002H111.92C112.021 195.217 113.152 196.088 114.355 196.088C115.278 196.088 116.066 195.645 116.66 194.859L118.106 195.659ZM116.531 192.588C116.166 191.374 115.264 190.732 114.176 190.732C113.087 190.732 112.2 191.403 111.92 192.588H116.531Z" fill="#0C1218"/>
<path d="M121.455 189.429H123.066V190.3H123.102C123.381 189.643 123.976 189.215 124.663 189.215C125.042 189.215 125.372 189.315 125.601 189.458L124.992 191.15C124.828 191.022 124.512 190.922 124.348 190.922C123.725 190.922 123.159 191.4 123.159 192.122V197.378H121.448V189.429H121.455Z" fill="#0C1218"/>
<path d="M135.445 196.495C135.445 199.123 133.433 200.63 131.278 200.63C130.175 200.63 128.822 200.173 127.92 199.052L129.316 198.03C129.645 198.487 130.383 199.016 131.192 199.016C132.939 199.016 133.827 197.88 133.827 196.666V196.138C133.104 196.945 132.28 197.366 131.113 197.366C129.058 197.366 127.247 195.824 127.247 193.31C127.247 190.696 129.187 189.203 131.314 189.203C132.38 189.203 133.24 189.617 133.798 190.353H133.834V189.417H135.445V196.495V196.495ZM131.464 195.774C132.846 195.774 133.834 194.674 133.834 193.31C133.834 191.931 132.767 190.831 131.464 190.831C130.132 190.831 129.058 191.931 129.058 193.295C129.058 194.674 130.011 195.774 131.464 195.774Z" fill="#0C1218"/>
<path d="M138.825 189.433H140.536V194.097C140.536 195.425 141.359 195.982 142.411 195.982C143.743 195.982 144.387 195.161 144.387 193.925V189.426H146.099V197.132C146.099 199.56 143.944 200.631 142.462 200.631C140.665 200.631 139.863 199.96 139.089 199.074L140.536 198.189C141.08 198.717 141.624 199.024 142.361 199.024C143.5 199.024 144.488 198.332 144.488 196.939V196.51H144.452C143.779 197.267 143.149 197.596 142.046 197.596C140.271 197.596 138.817 196.268 138.817 194.032V189.433H138.825Z" fill="#0C1218"/>
<path d="M155.362 185.475L160.553 190.71L165.743 185.475V197.38H163.581V190.174L160.545 193.309L157.51 190.174V197.38H155.348V185.475H155.362Z" fill="#0C1218"/>
<path d="M175.745 196.409H175.709C175.165 197.131 174.177 197.595 173.089 197.595C170.469 197.595 168.958 195.459 168.958 193.41C168.958 191.453 170.59 189.225 173.175 189.225C174.363 189.225 175.265 189.732 175.709 190.41H175.745V189.439H177.456V197.388H175.745V196.409V196.409ZM173.311 195.988C174.664 195.988 175.817 194.838 175.817 193.41C175.817 191.981 174.664 190.832 173.311 190.832C171.929 190.832 170.777 191.981 170.777 193.41C170.777 194.838 171.929 195.988 173.311 195.988Z" fill="#0C1218"/>
<path d="M180.835 189.429H182.546V190.429H182.582C183.062 189.686 183.935 189.215 185.016 189.215C186.699 189.215 188.109 190.615 188.109 192.579V197.371H186.398V192.95C186.398 191.507 185.639 190.915 184.508 190.915C183.405 190.915 182.546 191.622 182.546 192.921V197.371H180.835V189.429Z" fill="#0C1218"/>
<path d="M197.684 196.409H197.648C197.104 197.131 196.116 197.595 195.028 197.595C192.407 197.595 190.896 195.459 190.896 193.41C190.896 191.453 192.529 189.225 195.113 189.225C196.302 189.225 197.204 189.732 197.648 190.41H197.684V189.439H199.395V197.388H197.684V196.409ZM195.249 195.988C196.603 195.988 197.755 194.838 197.755 193.41C197.755 191.981 196.603 190.832 195.249 190.832C193.868 190.832 192.715 191.981 192.715 193.41C192.708 194.838 193.861 195.988 195.249 195.988Z" fill="#0C1218"/>
<path d="M210.376 196.495C210.376 199.123 208.364 200.63 206.209 200.63C205.107 200.63 203.754 200.173 202.852 199.052L204.248 198.03C204.577 198.487 205.322 199.016 206.124 199.016C207.87 199.016 208.758 197.88 208.758 196.666V196.138C208.035 196.945 207.212 197.366 206.045 197.366C203.99 197.366 202.179 195.824 202.179 193.31C202.179 190.696 204.119 189.203 206.245 189.203C207.319 189.203 208.171 189.617 208.73 190.353H208.765V189.417H210.376V196.495V196.495ZM206.396 195.774C207.777 195.774 208.765 194.674 208.765 193.31C208.765 191.931 207.699 190.831 206.396 190.831C205.064 190.831 203.99 191.931 203.99 193.295C203.99 194.674 204.942 195.774 206.396 195.774Z" fill="#0C1218"/>
<path d="M221.395 195.659C220.443 196.859 219.126 197.58 217.694 197.595C214.909 197.595 213.298 195.509 213.298 193.41C213.298 191.31 214.909 189.225 217.694 189.225C219.355 189.225 221.825 190.589 221.825 193.688V194.002H215.209C215.31 195.217 216.441 196.088 217.644 196.088C218.567 196.088 219.355 195.645 219.949 194.859L221.395 195.659ZM219.813 192.588C219.448 191.374 218.546 190.732 217.457 190.732C216.369 190.732 215.481 191.403 215.202 192.588H219.813Z" fill="#0C1218"/>
<path d="M224.739 192.4C224.739 190.379 226.092 189.215 227.653 189.215C228.856 189.215 229.729 189.786 230.037 190.629H230.073C230.388 189.793 231.262 189.215 232.457 189.215C234.018 189.215 235.371 190.379 235.371 192.4V197.378H233.66V192.421C233.66 191.472 233.051 190.929 232.343 190.929C231.519 190.929 230.911 191.422 230.911 192.657V197.385H229.2V192.657C229.2 191.422 228.591 190.929 227.768 190.929C227.059 190.929 226.45 191.472 226.45 192.421V197.378H224.739V192.4V192.4Z" fill="#0C1218"/>
<path d="M246.388 195.659C245.436 196.859 244.119 197.58 242.687 197.595C239.902 197.595 238.291 195.509 238.291 193.41C238.291 191.31 239.902 189.225 242.687 189.225C244.348 189.225 246.818 190.589 246.818 193.688V194.002H240.203C240.303 195.217 241.434 196.088 242.637 196.088C243.56 196.088 244.348 195.645 244.942 194.859L246.388 195.659ZM244.806 192.588C244.441 191.374 243.539 190.732 242.451 190.732C241.362 190.732 240.475 191.403 240.195 192.588H244.806Z" fill="#0C1218"/>
<path d="M249.73 189.429H251.442V190.429H251.477C251.957 189.686 252.831 189.215 253.912 189.215C255.594 189.215 257.004 190.615 257.004 192.579V197.371H255.293V192.95C255.293 191.507 254.534 190.915 253.403 190.915C252.301 190.915 251.442 191.622 251.442 192.921V197.371H249.73V189.429Z" fill="#0C1218"/>
<path d="M259.663 189.432H260.637V187.332L262.348 186.854V189.432H263.715V191.039H262.348V194.174C262.348 195.031 262.548 195.424 263.057 195.716L263.98 196.245L263.221 197.595C261.46 196.759 260.637 196.152 260.637 194.488V191.039H259.663V189.432Z" fill="#0C1218"/>
</svg>
