<?xml version="1.0" standalone="no"?>
<!DOCTYPE svg PUBLIC "-//W3C//DTD SVG 20010904//EN"
 "http://www.w3.org/TR/2001/REC-SVG-20010904/DTD/svg10.dtd">
<svg version="1.0" xmlns="http://www.w3.org/2000/svg"
 width="1280.000000pt" height="1161.000000pt" viewBox="0 0 1280.000000 1161.000000"
 preserveAspectRatio="xMidYMid meet">
<g transform="translate(0.000000,1161.000000) scale(0.100000,-0.100000)"
fill="#000000" stroke="none">
<path d="M3660 11595 c-227 -36 -312 -119 -345 -341 -13 -83 -15 -278 -15
-1219 0 -1079 -1 -1122 -19 -1162 -12 -25 -35 -52 -58 -66 -21 -14 -146 -64
-278 -112 -585 -213 -898 -382 -1226 -663 -220 -189 -347 -376 -393 -582 -50
-217 -42 -490 19 -760 78 -341 186 -584 363 -818 l73 -97 -58 -17 c-231 -70
-447 -97 -631 -80 -70 6 -340 13 -601 14 -425 3 -475 1 -484 -13 -16 -25 -3
-56 74 -179 125 -199 1727 -2798 1740 -2822 21 -39 29 -92 19 -129 -7 -25 -49
-79 -131 -170 -340 -378 -431 -558 -612 -1209 -74 -267 -285 -1082 -294 -1135
l-6 -35 6003 0 6002 0 -5 23 c-3 12 -24 123 -47 247 -55 302 -96 465 -179 711
-88 262 -279 763 -341 895 -164 349 -518 840 -800 1106 -146 139 -180 155
-255 124 -19 -8 -304 -209 -632 -447 -329 -238 -653 -472 -721 -521 -143 -104
-242 -152 -242 -119 0 5 616 760 1369 1678 l1368 1668 -391 12 c-447 13 -816
33 -1296 69 -403 30 -1011 82 -1016 86 -9 10 20 28 116 72 872 404 1474 1010
1594 1606 48 238 20 524 -68 716 -117 253 -393 497 -789 699 -250 127 -486
209 -947 331 -234 62 -270 76 -292 117 -5 10 -15 301 -24 685 -7 367 -19 703
-24 747 -24 176 -51 301 -81 362 -78 163 -281 268 -639 333 -177 32 -337 35
-625 11 -322 -28 -1037 -40 -1260 -22 -411 33 -1220 168 -1655 276 -492 122
-983 173 -1260 130z m-227 -3942 c37 -18 152 -65 255 -104 456 -173 713 -254
1203 -380 32 -8 37 -14 53 -66 10 -32 26 -73 37 -91 10 -18 19 -35 19 -37 0
-15 -101 -26 -204 -24 -101 2 -120 0 -118 -12 2 -8 42 -97 88 -198 47 -101 83
-186 80 -189 -9 -8 -272 82 -425 147 -360 152 -943 485 -1084 619 -16 15 -41
50 -55 77 -24 45 -27 60 -27 158 0 103 1 110 24 128 30 25 61 19 154 -28z
m5794 -172 c13 -19 23 -49 23 -69 0 -29 -8 -44 -48 -82 -121 -117 -413 -300
-717 -450 -627 -310 -1087 -447 -1691 -505 -87 -8 -159 -13 -161 -11 -6 6 -2
14 156 269 78 126 141 233 141 238 0 5 -35 9 -78 9 -65 0 -378 26 -405 33 -4
1 20 22 53 46 60 42 65 43 168 52 246 21 852 107 1081 154 359 73 890 203
1221 299 102 30 196 53 210 53 16 -1 33 -14 47 -36z"/>
</g>
</svg>
